<?xml version="1.0" encoding="utf-8"?>
<!-- Generator: Adobe Illustrator 23.0.1, SVG Export Plug-In . SVG Version: 6.00 Build 0)  -->
<svg version="1.1" id="Layer_1" xmlns="http://www.w3.org/2000/svg" xmlns:xlink="http://www.w3.org/1999/xlink" x="0px" y="0px"
	 viewBox="0 0 2000 2000" style="enable-background:new 0 0 2000 2000;" xml:space="preserve">
<style type="text/css">
	.st0{fill:#FFFFFF;stroke:#000000;stroke-width:18;}
</style>
<path class="st0" d="M1632.9,1160.7c-109.6-0.3-198.7,88.5-198.7,198.2c0,21.5,3.4,42.3,9.8,61.7l-142.6,161.6l-731.5,0.3
	L349.5,1357l-2.8-702.5l11.5-11.7l0.3,0.2l68.8-70.4L580,417.5l730.5,0.3l142.6,161.6c-6.4,19.4-9.8,40.1-9.8,61.7
	c0,108.3,87,196.5,195,198.2c111.6,1.8,203.2-90,201.4-201.6c-1.8-107.9-89.8-194.8-198.2-194.8c-12.1,0-23.9,1.1-35.5,3.2
	l-224.5-233.4H490.4L169.7,552.2l-0.2,0.2l-9.2,9.8v885.6l321,339.5h891.1l224.5-233.4c11.5,2.1,23.4,3.2,35.5,3.2
	c109.4,0,198.2-88.7,198.2-198.2C1830.6,1249.3,1742.5,1161,1632.9,1160.7z M1642.3,576.9c39.3,0,71.2,31.9,71.2,71.2
	c0,39.3-31.9,71.2-71.2,71.2s-71.2-31.9-71.2-71.2C1571.1,608.8,1603,576.9,1642.3,576.9z M1630.7,1428.8
	c-39.8,0-71.8-32.8-70.7-72.7c1-37.5,31.7-68,69.2-68.7c39.8-0.8,72.2,31.2,72.2,70.7C1701.4,1397.1,1669.8,1428.8,1630.7,1428.8z"
	/>
</svg>
