<svg version="1.1" id="svg1" xmlns="http://www.w3.org/2000/svg" x="0" y="0" viewBox="0 0 128 128" style="enable-background:new 0 0 128 128" xml:space="preserve"><style>.st2{fill:#494949}.st3{fill:#3c3c3c;stroke:#595959}.st4{fill:#bcbcbc}.st6,.st7{fill:none;stroke:#111;stroke-width:.75;stroke-miterlimit:10}.st7{stroke:#595959}.st9{fill:#1b1b1b}.st12{opacity:.5}</style><path id="rect2896_1_" d="M116.5 79.4v31.8c0 4.5-3.6 8.1-8.1 8.1H19.6c-4.5 0-8.1-3.6-8.1-8.1V74.4" style="fill:#444"/><path id="rect2896" d="M20.4 12.5h87.2c4.4 0 7.9 3.5 7.9 7.9v87.2c0 4.4-3.5 7.9-7.9 7.9H20.4c-4.4 0-7.9-3.5-7.9-7.9V20.4c0-4.4 3.5-7.9 7.9-7.9z" style="fill:#1b1b1b;stroke:#595959;stroke-width:2"/><path class="st2" d="M104 33c0 4.9-3.8 8.9-8.6 8.9s-8.6-4-8.6-8.9"/><circle class="st3" cx="95.4" cy="32.6" r="8.1"/><path class="st4" d="M93.2 30.2c-.2.2-.5.1-.7-.1L90.8 28c-.2-.2-.1-.5.1-.7.2-.2.5-.1.7.1l1.7 2.1c.1.3.1.6-.1.7z"/><path class="st2" d="M86.8 61.4c0 4.9 3.8 8.9 8.6 8.9s8.6-4 8.6-8.9"/><circle class="st3" cx="95.4" cy="61" r="8.1"/><path class="st4" d="M97.6 58.6c.2.2.5.1.7-.1l1.7-2.1c.2-.2.1-.5-.1-.7-.2-.2-.5-.1-.7.1l-1.7 2.1c-.2.3-.2.6.1.7z"/><path d="M73.7 106.6H21.4c-.8 0-1.5-.7-1.5-1.5V79.5c0-.8.7-1.5 1.5-1.5h52.3c.8 0 1.5.7 1.5 1.5v25.6c0 .8-.7 1.5-1.5 1.5z" style="fill:#0a0a0a"/><path class="st6" d="M19.9 85h55.3M19.9 99.6h55.3M34 78v28.6"/><path class="st7" d="M47.6 78v28.6"/><path class="st6" d="M61.3 78v28.6"/><path class="st7" d="M19.9 92.3h55.3"/><path style="fill:none;stroke:#bc4e4e" d="M19.5 103.6 26 90.5l5.1 6.8 4-16.7 7.2 23.3 5.3-16.4 4.8 12.1 7.9-18.1 8.4 18.1L76 86.5"/><path class="st9" d="M75.2 86.2h1.5v2.9h-1.5z"/><path transform="rotate(90 19.173 102.738)" class="st9" d="M17.7 102h3v1.5h-3z"/><path d="M68.4 52.5c-3.6 0-6.5 2.9-6.5 6.5 0 .7.1 1.4.3 2l-4.7 5.3H33.4L26.2 59l-.1-23.1.4-.4 2.3-2.3 5-5.1h24l4.7 5.3c-.2.6-.3 1.3-.3 2 0 3.6 2.9 6.5 6.4 6.5 3.7.1 6.7-3 6.6-6.6-.1-3.6-3-6.4-6.5-6.4-.4 0-.8 0-1.2.1l-7.4-7.7H30.8L20.2 32.5l-.3.3V62l10.6 11.2h29.3l7.4-7.7c.4.1.8.1 1.2.1 3.6 0 6.5-2.9 6.5-6.5 0-3.7-2.9-6.6-6.5-6.6zm.3-19.2c1.3 0 2.3 1.1 2.3 2.3 0 1.3-1.1 2.3-2.3 2.3s-2.3-1.1-2.3-2.3c0-1.2 1-2.3 2.3-2.3zm-.4 28c-1.3 0-2.3-1-2.3-2.3 0-1.2 1-2.2 2.3-2.3 1.3 0 2.4 1 2.4 2.3 0 1.3-1.1 2.3-2.4 2.3z" style="fill:none;stroke:#191919;stroke-width:3"/><g><circle cx="95.4" cy="92.3" style="fill:#141414;stroke:#aff76b;stroke-width:2" r="4.8"/><circle cx="95.4" cy="92.3" r="2.8" class="st12"/><circle cx="95.4" cy="92.3" r="1.7" class="st12"/></g><path d="M68.4 52.5c-3.6 0-6.5 2.9-6.5 6.5 0 .7.1 1.4.3 2l-4.7 5.3H33.4L26.2 59l-.1-23.1.4-.4 2.3-2.3 5-5.1h24l4.7 5.3c-.2.6-.3 1.3-.3 2 0 3.6 2.9 6.5 6.4 6.5 3.7.1 6.7-3 6.6-6.6-.1-3.6-3-6.4-6.5-6.4-.4 0-.8 0-1.2.1l-7.4-7.7H30.8L20.2 32.5l-.3.3V62l10.6 11.2h29.3l7.4-7.7c.4.1.8.1 1.2.1 3.6 0 6.5-2.9 6.5-6.5 0-3.7-2.9-6.6-6.5-6.6zm.3-19.2c1.3 0 2.3 1.1 2.3 2.3 0 1.3-1.1 2.3-2.3 2.3s-2.3-1.1-2.3-2.3c0-1.2 1-2.3 2.3-2.3zm-.4 28c-1.3 0-2.3-1-2.3-2.3 0-1.2 1-2.2 2.3-2.3 1.3 0 2.4 1 2.4 2.3 0 1.3-1.1 2.3-2.4 2.3z" style="fill:#595959"/></svg>