<svg xmlns="http://www.w3.org/2000/svg" xml:space="preserve" id="Layer_2" x="0" y="0" version="1.1" viewBox="0 0 128 128"><style>.st2{fill:#494949}.st3{fill:#3c3c3c;stroke:#969696}.st4{fill:#bcbcbc}.st6,.st7{fill:none;stroke:#111;stroke-width:.75;stroke-miterlimit:10}.st7{stroke:#595959}.st9{fill:#1b1b1b}.st12{opacity:.5}</style><path id="rect2896_2_" d="M117.9 78.5v32.7c0 4.6-3.7 8.3-8.3 8.3H18.4c-4.6 0-8.3-3.7-8.3-8.3V73.3" style="fill:#707070"/><path id="rect2896_1_" d="M19.2 9.8h89.5c4.5 0 8.1 3.6 8.1 8.1v89.5c0 4.5-3.6 8.1-8.1 8.1H19.2c-4.5 0-8.1-3.6-8.1-8.1V17.9c0-4.5 3.6-8.1 8.1-8.1z" style="fill:#1b1b1b;stroke:#969696;stroke-width:2"/><path d="M105.1 30.8c0 5-3.9 9.1-8.8 9.1s-8.8-4.1-8.8-9.1" class="st2"/><circle cx="96.2" cy="30.4" r="8.3" class="st3"/><path d="M94 27.9c-.2.2-.5.1-.7-.1l-1.7-2.2c-.2-.2-.1-.5.1-.7s.5-.1.7.1l1.7 2.2c.1.3.1.6-.1.7" class="st4"/><path d="M87.4 60c0 5 3.9 9.1 8.8 9.1S105 65 105 60" class="st2"/><circle cx="96.2" cy="59.6" r="8.3" class="st3"/><path d="M98.5 57.1c.2.2.5.1.7-.1l1.7-2.2c.2-.2.1-.5-.1-.7s-.5-.1-.7.1l-1.7 2.2c-.2.3-.2.6.1.7" class="st4"/><path d="M74 106.4H20.3c-.8 0-1.5-.7-1.5-1.5V78.6c0-.8.7-1.5 1.5-1.5H74c.8 0 1.5.7 1.5 1.5v26.3c0 .8-.7 1.5-1.5 1.5" style="fill:#0a0a0a"/><path d="M18.7 84.2h56.8M18.7 99.2h56.8M33.2 77v29.4" class="st6"/><path d="M47.2 77v29.4" class="st7"/><path d="M61.2 77v29.4" class="st6"/><path d="M18.7 91.7h56.8" class="st7"/><path d="M18.3 103.3 25 89.9l5.2 6.9 4.1-17.1 7.4 23.9 5.5-16.8 4.9 12.4 8.1-18.6 8.6 18.6 7.5-13.4" style="fill:none;stroke:#db4040"/><path d="M75.5 85.4H77v3h-1.5zM17.2 101h1.5v3.1h-1.5z" class="st9"/><path d="M68.5 50.8c-3.7 0-6.7 3-6.7 6.7q0 1.05.3 2.1L57.3 65H32.6l-7.4-7.5-.1-23.7.4-.4 2.4-2.4 5.1-5.2h24.6l4.8 5.4q-.3.9-.3 2.1c0 3.7 3 6.7 6.6 6.7 3.8.1 6.9-3.1 6.8-6.8s-3.1-6.6-6.7-6.6c-.4 0-.8 0-1.2.1L60 18.8H29.9L19 30.3l-.3.3v30l10.9 11.5h30.1l7.6-7.9c.4.1.8.1 1.2.1 3.7 0 6.7-3 6.7-6.7 0-3.8-3-6.8-6.7-6.8zm.3-19.7c1.3 0 2.4 1.1 2.4 2.4s-1.1 2.4-2.4 2.4c-1.2 0-2.4-1.1-2.4-2.4.1-1.2 1.1-2.4 2.4-2.4zm-.4 28.8c-1.3 0-2.4-1-2.4-2.4 0-1.2 1-2.3 2.4-2.4 1.3 0 2.5 1 2.5 2.4 0 1.3-1.1 2.4-2.5 2.4z" style="fill:none;stroke:#191919;stroke-width:3"/><circle cx="96.2" cy="91.7" r="4.9" style="fill:#141414;stroke:#92ef30;stroke-width:2"/><circle cx="96.2" cy="91.7" r="2.9" class="st12"/><circle cx="96.2" cy="91.7" r="1.7" class="st12"/><path d="M68.5 50.8c-3.7 0-6.7 3-6.7 6.7q0 1.05.3 2.1L57.3 65H32.6l-7.4-7.5-.1-23.7.4-.4 2.4-2.4 5.1-5.2h24.6l4.8 5.4q-.3.9-.3 2.1c0 3.7 3 6.7 6.6 6.7 3.8.1 6.9-3.1 6.8-6.8s-3.1-6.6-6.7-6.6c-.4 0-.8 0-1.2.1L60 18.8H29.9L19 30.3l-.3.3v30l10.9 11.5h30.1l7.6-7.9c.4.1.8.1 1.2.1 3.7 0 6.7-3 6.7-6.7 0-3.8-3-6.8-6.7-6.8m.3-19.7c1.3 0 2.4 1.1 2.4 2.4s-1.1 2.4-2.4 2.4c-1.2 0-2.4-1.1-2.4-2.4.1-1.2 1.1-2.4 2.4-2.4m-.4 28.8c-1.3 0-2.4-1-2.4-2.4 0-1.2 1-2.3 2.4-2.4 1.3 0 2.5 1 2.5 2.4 0 1.3-1.1 2.4-2.5 2.4" style="fill:#969696"/></svg>